<svg xmlns="http://www.w3.org/2000/svg" xmlns:xlink="http://www.w3.org/1999/xlink" width="111" zoomAndPan="magnify" viewBox="0 0 83.25 36.000001" height="48" preserveAspectRatio="xMidYMid meet" version="1.0"><defs><g/></defs><g fill="#ffffff" fill-opacity="1"><g transform="translate(1.562837, 20.986482)"><g><path d="M 3.578125 -3.265625 L 3.578125 -0.9375 L 5.21875 -0.703125 L 5.21875 0 L 0.453125 0 L 0.375 -0.4375 C 0.65625 -0.613281 1.023438 -0.796875 1.484375 -0.984375 L 1.484375 -8.21875 L 0.46875 -8.34375 L 0.484375 -9.046875 L 4.921875 -9.15625 C 5.984375 -9.15625 6.84375 -8.875 7.5 -8.3125 C 8.15625 -7.75 8.484375 -7.035156 8.484375 -6.171875 C 8.484375 -5.359375 8.171875 -4.675781 7.546875 -4.125 C 6.921875 -3.570312 6.117188 -3.285156 5.140625 -3.265625 Z M 3.578125 -7.875 L 3.578125 -4.484375 C 3.941406 -4.410156 4.296875 -4.375 4.640625 -4.375 C 5.191406 -4.375 5.609375 -4.550781 5.890625 -4.90625 C 6.179688 -5.257812 6.328125 -5.691406 6.328125 -6.203125 C 6.328125 -6.597656 6.253906 -6.972656 6.109375 -7.328125 C 5.960938 -7.679688 5.753906 -7.929688 5.484375 -8.078125 Z M 3.578125 -7.875 "/></g></g></g><g fill="#ffffff" fill-opacity="1"><g transform="translate(10.249002, 20.986482)"><g><path d="M 4.59375 -9.328125 C 5.90625 -9.328125 6.984375 -8.867188 7.828125 -7.953125 C 8.671875 -7.046875 9.09375 -5.863281 9.09375 -4.40625 C 9.09375 -3 8.679688 -1.863281 7.859375 -1 C 7.035156 -0.144531 5.984375 0.28125 4.703125 0.28125 C 3.378906 0.28125 2.296875 -0.15625 1.453125 -1.03125 C 0.609375 -1.90625 0.1875 -3.050781 0.1875 -4.46875 C 0.1875 -5.894531 0.601562 -7.0625 1.4375 -7.96875 C 2.269531 -8.875 3.320312 -9.328125 4.59375 -9.328125 Z M 3.40625 -7.921875 C 3.101562 -7.660156 2.859375 -7.238281 2.671875 -6.65625 C 2.484375 -6.082031 2.390625 -5.4375 2.390625 -4.71875 C 2.390625 -3.601562 2.609375 -2.691406 3.046875 -1.984375 C 3.492188 -1.285156 4.125 -0.9375 4.9375 -0.9375 C 5.144531 -0.9375 5.40625 -0.976562 5.71875 -1.0625 C 6.070312 -1.332031 6.351562 -1.765625 6.5625 -2.359375 C 6.769531 -2.960938 6.875 -3.628906 6.875 -4.359375 C 6.875 -5.460938 6.648438 -6.363281 6.203125 -7.0625 C 5.753906 -7.757812 5.15625 -8.109375 4.40625 -8.109375 C 4.101562 -8.109375 3.769531 -8.046875 3.40625 -7.921875 Z M 3.40625 -7.921875 "/></g></g></g><g fill="#ffffff" fill-opacity="1"><g transform="translate(19.526147, 20.986482)"><g><path d="M 9.390625 -0.703125 L 9.375 0 L 6.625 0 L 4.75 -3.5 L 3.609375 -3.5 L 3.609375 -0.875 L 4.859375 -0.703125 L 4.84375 0 L 0.4375 0 L 0.359375 -0.4375 C 0.617188 -0.613281 1.007812 -0.800781 1.53125 -1 L 1.53125 -8.21875 L 0.515625 -8.34375 L 0.515625 -9.046875 L 4.90625 -9.15625 C 5.957031 -9.15625 6.820312 -8.890625 7.5 -8.359375 C 8.175781 -7.828125 8.515625 -7.160156 8.515625 -6.359375 C 8.515625 -5.828125 8.347656 -5.328125 8.015625 -4.859375 C 7.679688 -4.398438 7.234375 -4.050781 6.671875 -3.8125 L 8.515625 -0.8125 Z M 3.609375 -4.640625 C 3.921875 -4.578125 4.222656 -4.546875 4.515625 -4.546875 C 5.160156 -4.546875 5.628906 -4.710938 5.921875 -5.046875 C 6.210938 -5.378906 6.359375 -5.804688 6.359375 -6.328125 C 6.359375 -7.128906 6.082031 -7.710938 5.53125 -8.078125 L 3.609375 -7.875 Z M 3.609375 -4.640625 "/></g></g></g><g fill="#ffffff" fill-opacity="1"><g transform="translate(29.036945, 20.986482)"><g><path d="M 8.75 -9.125 L 8.765625 -8.734375 C 8.765625 -7.785156 8.6875 -6.953125 8.53125 -6.234375 L 7.421875 -6.234375 L 7.21875 -7.96875 L 5.484375 -8.09375 L 5.484375 -0.90625 L 6.890625 -0.703125 L 6.875 0 L 2.078125 0 L 2 -0.4375 C 2.195312 -0.5625 2.660156 -0.769531 3.390625 -1.0625 L 3.390625 -8.09375 L 1.65625 -7.96875 L 1.4375 -6.234375 L 0.34375 -6.234375 C 0.1875 -6.953125 0.109375 -7.785156 0.109375 -8.734375 L 0.125 -9.125 L 4.453125 -9.078125 Z M 8.75 -9.125 "/></g></g></g><g fill="#cb6ce6" fill-opacity="1"><g transform="translate(37.900724, 20.986482)"><g><path d="M 3.578125 -7.96875 L 3.578125 -4.75 L 6.640625 -4.984375 L 6.640625 -3.53125 L 3.578125 -3.671875 L 3.578125 -0.9375 L 5.21875 -0.703125 L 5.21875 0 L 0.453125 0 L 0.375 -0.4375 C 0.65625 -0.613281 1.023438 -0.796875 1.484375 -0.984375 L 1.484375 -8.21875 L 0.46875 -8.34375 L 0.484375 -9.046875 L 7.65625 -9.046875 C 7.707031 -8.242188 7.632812 -7.351562 7.4375 -6.375 L 6.28125 -6.375 L 6.046875 -7.796875 Z M 3.578125 -7.96875 "/></g></g></g><g fill="#cb6ce6" fill-opacity="1"><g transform="translate(46.133334, 20.986482)"><g><path d="M 4.59375 -9.328125 C 5.90625 -9.328125 6.984375 -8.867188 7.828125 -7.953125 C 8.671875 -7.046875 9.09375 -5.863281 9.09375 -4.40625 C 9.09375 -3 8.679688 -1.863281 7.859375 -1 C 7.035156 -0.144531 5.984375 0.28125 4.703125 0.28125 C 3.378906 0.28125 2.296875 -0.15625 1.453125 -1.03125 C 0.609375 -1.90625 0.1875 -3.050781 0.1875 -4.46875 C 0.1875 -5.894531 0.601562 -7.0625 1.4375 -7.96875 C 2.269531 -8.875 3.320312 -9.328125 4.59375 -9.328125 Z M 3.40625 -7.921875 C 3.101562 -7.660156 2.859375 -7.238281 2.671875 -6.65625 C 2.484375 -6.082031 2.390625 -5.4375 2.390625 -4.71875 C 2.390625 -3.601562 2.609375 -2.691406 3.046875 -1.984375 C 3.492188 -1.285156 4.125 -0.9375 4.9375 -0.9375 C 5.144531 -0.9375 5.40625 -0.976562 5.71875 -1.0625 C 6.070312 -1.332031 6.351562 -1.765625 6.5625 -2.359375 C 6.769531 -2.960938 6.875 -3.628906 6.875 -4.359375 C 6.875 -5.460938 6.648438 -6.363281 6.203125 -7.0625 C 5.753906 -7.757812 5.15625 -8.109375 4.40625 -8.109375 C 4.101562 -8.109375 3.769531 -8.046875 3.40625 -7.921875 Z M 3.40625 -7.921875 "/></g></g></g><g fill="#cb6ce6" fill-opacity="1"><g transform="translate(55.410479, 20.986482)"><g><path d="M 8.09375 -2.671875 C 8.09375 -1.566406 8.035156 -0.675781 7.921875 0 L 0.4375 0 L 0.359375 -0.4375 C 0.617188 -0.613281 1.007812 -0.800781 1.53125 -1 L 1.53125 -8.1875 L 0.46875 -8.34375 L 0.484375 -9.046875 L 4.6875 -9.046875 L 4.765625 -8.609375 C 4.429688 -8.410156 4.046875 -8.222656 3.609375 -8.046875 L 3.609375 -1.15625 L 6.359375 -1.375 L 6.90625 -3.265625 L 8.09375 -3.15625 Z M 8.09375 -2.671875 "/></g></g></g><g fill="#cb6ce6" fill-opacity="1"><g transform="translate(63.60186, 20.986482)"><g><path d="M 4.875 -0.703125 L 4.875 0 L 0.4375 0 L 0.359375 -0.4375 C 0.617188 -0.613281 1.007812 -0.800781 1.53125 -1 L 1.53125 -8.1875 L 0.46875 -8.34375 L 0.484375 -9.046875 L 4.6875 -9.046875 L 4.765625 -8.609375 C 4.429688 -8.410156 4.046875 -8.222656 3.609375 -8.046875 L 3.609375 -0.875 Z M 4.875 -0.703125 "/></g></g></g><g fill="#cb6ce6" fill-opacity="1"><g transform="translate(68.852038, 20.986482)"><g><path d="M 4.59375 -9.328125 C 5.90625 -9.328125 6.984375 -8.867188 7.828125 -7.953125 C 8.671875 -7.046875 9.09375 -5.863281 9.09375 -4.40625 C 9.09375 -3 8.679688 -1.863281 7.859375 -1 C 7.035156 -0.144531 5.984375 0.28125 4.703125 0.28125 C 3.378906 0.28125 2.296875 -0.15625 1.453125 -1.03125 C 0.609375 -1.90625 0.1875 -3.050781 0.1875 -4.46875 C 0.1875 -5.894531 0.601562 -7.0625 1.4375 -7.96875 C 2.269531 -8.875 3.320312 -9.328125 4.59375 -9.328125 Z M 3.40625 -7.921875 C 3.101562 -7.660156 2.859375 -7.238281 2.671875 -6.65625 C 2.484375 -6.082031 2.390625 -5.4375 2.390625 -4.71875 C 2.390625 -3.601562 2.609375 -2.691406 3.046875 -1.984375 C 3.492188 -1.285156 4.125 -0.9375 4.9375 -0.9375 C 5.144531 -0.9375 5.40625 -0.976562 5.71875 -1.0625 C 6.070312 -1.332031 6.351562 -1.765625 6.5625 -2.359375 C 6.769531 -2.960938 6.875 -3.628906 6.875 -4.359375 C 6.875 -5.460938 6.648438 -6.363281 6.203125 -7.0625 C 5.753906 -7.757812 5.15625 -8.109375 4.40625 -8.109375 C 4.101562 -8.109375 3.769531 -8.046875 3.40625 -7.921875 Z M 3.40625 -7.921875 "/></g></g></g></svg>