<svg xmlns="http://www.w3.org/2000/svg" xmlns:xlink="http://www.w3.org/1999/xlink" width="111" zoomAndPan="magnify" viewBox="0 0 83.25 36.000001" height="48" preserveAspectRatio="xMidYMid meet" version="1.0"><defs><g/><clipPath id="63666903cb"><path d="M 0.761719 0 L 12 0 L 12 14 L 0.761719 14 Z M 0.761719 0 " clip-rule="nonzero"/></clipPath></defs><g clip-path="url(#63666903cb)"><g fill="#b936ee" fill-opacity="1"><g transform="translate(0.760134, 12.811356)"><g><path d="M 6.703125 -0.0703125 C 8.59375 -0.515625 11 -2.851562 8.753906 -5.492188 C 8.503906 -5.742188 6.722656 -7.578125 6.453125 -7.898438 C 6.007812 -8.378906 5.757812 -8.878906 5.703125 -9.359375 C 5.597656 -10.035156 5.757812 -10.410156 6.0625 -10.605469 C 6.703125 -11.035156 7.703125 -10.269531 7.71875 -10.269531 C 8.164062 -9.984375 8.539062 -9.839844 8.859375 -10.269531 C 9.289062 -10.695312 8.84375 -11.175781 8.433594 -11.625 C 7.238281 -12.816406 4.101562 -12.640625 3.121094 -12.28125 C 1.390625 -11.605469 0.640625 -10.519531 0.785156 -8.71875 C 0.765625 -7.023438 3.617188 -4.671875 4.636719 -3.636719 C 5.097656 -3.191406 5.3125 -2.816406 5.0625 -2.316406 C 4.492188 -1.390625 2.941406 -1.605469 2.15625 -2.335938 C 1.675781 -2.746094 0.855469 -2.90625 0.625 -2.316406 C -0.144531 -0.695312 4.117188 0.765625 6.703125 -0.0703125 Z M 6.703125 -0.0703125 "/></g></g></g></g><g fill="#b936ee" fill-opacity="1"><g transform="translate(10.95398, 12.811356)"><g><path d="M 3.976562 0 C 4.722656 0 5.222656 -0.390625 5.472656 -1.175781 C 5.597656 -1.605469 5.722656 -2.03125 5.828125 -2.460938 C 5.902344 -2.726562 5.988281 -3.03125 6.042969 -3.316406 C 6.3125 -4.1875 6.453125 -4.386719 7.167969 -4.386719 C 8.308594 -4.386719 8.824219 -4.117188 9.074219 -3.386719 C 9.144531 -3.121094 9.644531 -1.390625 9.679688 -1.140625 C 9.859375 -0.695312 10.054688 -0.375 10.359375 -0.160156 C 10.570312 0 10.890625 0.179688 11.25 0 C 11.945312 -0.390625 11.585938 -0.925781 11.425781 -1.570312 C 11.410156 -1.65625 11.195312 -2.15625 10.964844 -2.976562 C 10.855469 -3.261719 10.75 -3.617188 10.644531 -3.902344 C 10.144531 -5.988281 9.589844 -8.164062 8.914062 -10.320312 C 8.753906 -10.730469 8.539062 -11.214844 8.359375 -11.605469 C 8.058594 -12.195312 7.578125 -12.445312 6.988281 -12.300781 C 6.542969 -12.195312 5.382812 -12.246094 5.3125 -12.28125 C 3.976562 -12.355469 3.296875 -11.871094 2.996094 -10.644531 C 2.675781 -9.378906 2.265625 -8.164062 1.871094 -6.953125 C 1.65625 -6.328125 1.480469 -5.6875 1.265625 -5.027344 C 0.875 -3.761719 0.640625 -2.710938 0.535156 -1.800781 L 0.535156 -1.78125 C 0.480469 -0.5 0.785156 -0.179688 1.960938 -0.0898438 C 2.335938 -0.0546875 2.726562 -0.0351562 3.085938 -0.0351562 C 3.351562 -0.0195312 3.617188 -0.0195312 3.851562 -0.0195312 C 3.867188 0 3.921875 0 3.976562 0 Z M 6.988281 -6.792969 C 7.167969 -7.273438 7.328125 -7.773438 7.503906 -8.34375 C 7.898438 -9.253906 8.21875 -7.398438 8.308594 -6.667969 C 8.378906 -6.292969 8.253906 -6.0625 8.003906 -5.953125 C 7.683594 -5.792969 7.363281 -5.828125 7.167969 -6.027344 C 6.933594 -6.1875 6.882812 -6.4375 6.988281 -6.792969 Z M 6.988281 -6.792969 "/></g></g></g><g fill="#b936ee" fill-opacity="1"><g transform="translate(23.143827, 12.811356)"><g><path d="M 2.191406 0.0898438 C 5.652344 0.375 5.507812 0.105469 5.472656 -3.191406 C 5.492188 -3.566406 5.828125 -3.851562 6.273438 -3.851562 C 6.882812 -3.851562 7.417969 -3.867188 7.84375 -3.886719 C 8.183594 -3.902344 8.433594 -3.546875 8.449219 -3.066406 L 8.503906 -1.746094 C 8.558594 -0.515625 8.503906 -0.0703125 9.378906 -0.0703125 C 10.339844 -0.0703125 10.359375 -0.515625 10.285156 -4.652344 C 10.285156 -4.882812 10.269531 -5.097656 10.269531 -5.292969 L 10.285156 -5.492188 C 10.359375 -6.84375 10.320312 -9.144531 10.25 -10.484375 C 10.195312 -11.710938 10.25 -12.160156 9.378906 -12.160156 C 8.414062 -12.160156 8.484375 -11.625 8.519531 -9.625 L 8.484375 -6.933594 L 8.46875 -6.738281 C 8.46875 -6.578125 8.449219 -6.398438 8.449219 -6.203125 C 8.433594 -5.882812 8.09375 -5.667969 7.628906 -5.667969 C 7.203125 -5.6875 6.738281 -5.6875 6.3125 -5.6875 C 5.847656 -5.6875 5.507812 -6.007812 5.492188 -6.472656 C 5.4375 -7.96875 5.292969 -9.484375 5.1875 -10.980469 C 5.3125 -12.390625 3.691406 -12.140625 2.675781 -12.160156 C 1.085938 -12.175781 0.605469 -11.945312 0.589844 -10.320312 C 0.550781 -8.894531 0.550781 -7.363281 0.535156 -5.953125 C 0.535156 -4.5625 0.570312 -3.121094 0.535156 -1.730469 C 0.535156 -0.304688 0.785156 0 2.191406 0.0898438 Z M 2.191406 0.0898438 "/></g></g></g><g fill="#b936ee" fill-opacity="1"><g transform="translate(33.997065, 12.811356)"><g><path d="M 3.976562 0 C 4.722656 0 5.222656 -0.390625 5.472656 -1.175781 C 5.597656 -1.605469 5.722656 -2.03125 5.828125 -2.460938 C 5.902344 -2.726562 5.988281 -3.03125 6.042969 -3.316406 C 6.3125 -4.1875 6.453125 -4.386719 7.167969 -4.386719 C 8.308594 -4.386719 8.824219 -4.117188 9.074219 -3.386719 C 9.144531 -3.121094 9.644531 -1.390625 9.679688 -1.140625 C 9.859375 -0.695312 10.054688 -0.375 10.359375 -0.160156 C 10.570312 0 10.890625 0.179688 11.25 0 C 11.945312 -0.390625 11.585938 -0.925781 11.425781 -1.570312 C 11.410156 -1.65625 11.195312 -2.15625 10.964844 -2.976562 C 10.855469 -3.261719 10.75 -3.617188 10.644531 -3.902344 C 10.144531 -5.988281 9.589844 -8.164062 8.914062 -10.320312 C 8.753906 -10.730469 8.539062 -11.214844 8.359375 -11.605469 C 8.058594 -12.195312 7.578125 -12.445312 6.988281 -12.300781 C 6.542969 -12.195312 5.382812 -12.246094 5.3125 -12.28125 C 3.976562 -12.355469 3.296875 -11.871094 2.996094 -10.644531 C 2.675781 -9.378906 2.265625 -8.164062 1.871094 -6.953125 C 1.65625 -6.328125 1.480469 -5.6875 1.265625 -5.027344 C 0.875 -3.761719 0.640625 -2.710938 0.535156 -1.800781 L 0.535156 -1.78125 C 0.480469 -0.5 0.785156 -0.179688 1.960938 -0.0898438 C 2.335938 -0.0546875 2.726562 -0.0351562 3.085938 -0.0351562 C 3.351562 -0.0195312 3.617188 -0.0195312 3.851562 -0.0195312 C 3.867188 0 3.921875 0 3.976562 0 Z M 6.988281 -6.792969 C 7.167969 -7.273438 7.328125 -7.773438 7.503906 -8.34375 C 7.898438 -9.253906 8.21875 -7.398438 8.308594 -6.667969 C 8.378906 -6.292969 8.253906 -6.0625 8.003906 -5.953125 C 7.683594 -5.792969 7.363281 -5.828125 7.167969 -6.027344 C 6.933594 -6.1875 6.882812 -6.4375 6.988281 -6.792969 Z M 6.988281 -6.792969 "/></g></g></g><g fill="#b936ee" fill-opacity="1"><g transform="translate(46.186911, 12.811356)"><g><path d="M 2.191406 0.0898438 C 5.652344 0.375 5.507812 0.105469 5.472656 -3.191406 C 5.457031 -4.476562 5.4375 -5.757812 5.382812 -7.042969 C 5.382812 -7.167969 5.597656 -7.21875 5.652344 -7.113281 C 6.808594 -4.8125 8.183594 -2.121094 8.558594 -1.390625 C 8.734375 -1.015625 8.894531 -0.75 9.039062 -0.550781 C 9.128906 -0.214844 9.324219 -0.0703125 9.824219 -0.0703125 C 10.785156 -0.0703125 10.804688 -0.515625 10.730469 -4.652344 C 10.730469 -4.882812 10.695312 -5.097656 10.714844 -5.292969 L 10.730469 -5.492188 C 10.855469 -6.84375 10.769531 -9.144531 10.695312 -10.484375 C 10.644531 -11.710938 10.695312 -12.160156 9.824219 -12.160156 C 8.859375 -12.160156 8.929688 -11.625 8.96875 -9.625 C 8.96875 -9.394531 8.949219 -7.132812 8.929688 -6.933594 L 8.914062 -6.738281 C 8.878906 -6.257812 8.859375 -5.667969 8.859375 -5.046875 C 8.84375 -4.921875 8.644531 -4.867188 8.574219 -4.992188 L 6.578125 -9.199219 C 6.382812 -9.625 6.1875 -9.984375 6.0625 -10.320312 C 5.597656 -11.375 5.1875 -11.75 4.867188 -11.871094 C 4.351562 -12.265625 3.371094 -12.140625 2.675781 -12.160156 C 1.085938 -12.175781 0.605469 -11.945312 0.589844 -10.320312 C 0.550781 -8.894531 0.550781 -7.363281 0.535156 -5.953125 C 0.535156 -4.5625 0.570312 -3.121094 0.535156 -1.730469 C 0.535156 -0.304688 0.785156 0 2.191406 0.0898438 Z M 10.605469 -0.960938 C 10.625 -1.015625 10.625 -1.035156 10.644531 -0.980469 C 10.660156 -0.910156 10.644531 -0.910156 10.605469 -0.960938 Z M 10.605469 -0.960938 "/></g></g></g><g fill="#ffffff" fill-opacity="1"><g transform="translate(0.760134, 31.054599)"><g><path d="M 2.335938 0.144531 C 5.347656 0.320312 5.632812 0.0351562 5.578125 -2.191406 C 5.578125 -2.460938 5.757812 -2.476562 5.902344 -2.226562 C 6.328125 -1.445312 6.953125 -0.765625 7.753906 -0.304688 C 8.074219 -0.179688 8.789062 0.25 9.253906 -0.304688 C 10.160156 -1.210938 9.039062 -1.800781 8.164062 -2.710938 C 7.828125 -3.066406 7.558594 -3.40625 7.378906 -3.742188 C 7.292969 -3.921875 7.398438 -4.101562 7.578125 -4.152344 C 7.898438 -4.261719 8.183594 -4.386719 8.398438 -4.5625 C 8.96875 -5.027344 9.378906 -5.742188 9.539062 -6.597656 C 9.644531 -7.023438 9.664062 -7.503906 9.664062 -8.058594 C 9.664062 -8.449219 9.644531 -8.859375 9.609375 -9.304688 C 9.449219 -10.875 8.128906 -11.910156 6.828125 -12.085938 L 6.042969 -12.195312 C 5.382812 -12.28125 4.582031 -12.300781 3.851562 -12.300781 C 3.421875 -12.320312 2.976562 -12.28125 2.601562 -12.28125 C 1.015625 -12.265625 0.535156 -12.035156 0.535156 -10.410156 C 0.535156 -8.984375 0.550781 -7.453125 0.570312 -6.042969 C 0.589844 -4.652344 0.660156 -3.207031 0.640625 -1.65625 C 0.625 -0.230469 0.925781 0.0703125 2.335938 0.144531 Z M 5.242188 -10.089844 C 5.222656 -10.320312 5.367188 -10.484375 5.597656 -10.5 C 6.0625 -10.5 6.578125 -10.5 6.808594 -10.410156 C 7.683594 -10.074219 7.789062 -8.808594 7.828125 -8.164062 C 7.898438 -6.578125 7.503906 -6.042969 7.167969 -5.8125 C 6.898438 -5.667969 6.613281 -5.5625 5.882812 -5.492188 C 5.652344 -5.472656 5.472656 -5.617188 5.472656 -5.847656 C 5.402344 -7.273438 5.347656 -8.71875 5.242188 -10.089844 Z M 5.242188 -10.089844 "/></g></g></g><g fill="#ffffff" fill-opacity="1"><g transform="translate(10.95398, 31.054599)"><g><path d="M 2.191406 0.0898438 C 5.652344 0.375 5.507812 0.105469 5.472656 -3.191406 C 5.632812 -5.792969 5.382812 -8.398438 5.1875 -10.980469 C 5.3125 -12.390625 3.691406 -12.140625 2.675781 -12.160156 C 1.085938 -12.175781 0.605469 -11.945312 0.589844 -10.320312 C 0.550781 -8.894531 0.550781 -7.363281 0.535156 -5.953125 C 0.535156 -4.5625 0.570312 -3.121094 0.535156 -1.730469 C 0.535156 -0.304688 0.785156 0 2.191406 0.0898438 Z M 2.191406 0.0898438 "/></g></g></g><g fill="#ffffff" fill-opacity="1"><g transform="translate(17.013256, 31.054599)"><g><path d="M 6.703125 -0.0703125 C 8.59375 -0.515625 11 -2.851562 8.753906 -5.492188 C 8.503906 -5.742188 6.722656 -7.578125 6.453125 -7.898438 C 6.007812 -8.378906 5.757812 -8.878906 5.703125 -9.359375 C 5.597656 -10.035156 5.757812 -10.410156 6.0625 -10.605469 C 6.703125 -11.035156 7.703125 -10.269531 7.71875 -10.269531 C 8.164062 -9.984375 8.539062 -9.839844 8.859375 -10.269531 C 9.289062 -10.695312 8.84375 -11.175781 8.433594 -11.625 C 7.238281 -12.816406 4.101562 -12.640625 3.121094 -12.28125 C 1.390625 -11.605469 0.640625 -10.519531 0.785156 -8.71875 C 0.765625 -7.023438 3.617188 -4.671875 4.636719 -3.636719 C 5.097656 -3.191406 5.3125 -2.816406 5.0625 -2.316406 C 4.492188 -1.390625 2.941406 -1.605469 2.15625 -2.335938 C 1.675781 -2.746094 0.855469 -2.90625 0.625 -2.316406 C -0.144531 -0.695312 4.117188 0.765625 6.703125 -0.0703125 Z M 6.703125 -0.0703125 "/></g></g></g><g fill="#ffffff" fill-opacity="1"><g transform="translate(27.207102, 31.054599)"><g><path d="M 2.191406 0.0898438 C 5.652344 0.375 5.507812 0.105469 5.472656 -3.191406 C 5.492188 -3.566406 5.828125 -3.851562 6.273438 -3.851562 C 6.882812 -3.851562 7.417969 -3.867188 7.84375 -3.886719 C 8.183594 -3.902344 8.433594 -3.546875 8.449219 -3.066406 L 8.503906 -1.746094 C 8.558594 -0.515625 8.503906 -0.0703125 9.378906 -0.0703125 C 10.339844 -0.0703125 10.359375 -0.515625 10.285156 -4.652344 C 10.285156 -4.882812 10.269531 -5.097656 10.269531 -5.292969 L 10.285156 -5.492188 C 10.359375 -6.84375 10.320312 -9.144531 10.25 -10.484375 C 10.195312 -11.710938 10.25 -12.160156 9.378906 -12.160156 C 8.414062 -12.160156 8.484375 -11.625 8.519531 -9.625 L 8.484375 -6.933594 L 8.46875 -6.738281 C 8.46875 -6.578125 8.449219 -6.398438 8.449219 -6.203125 C 8.433594 -5.882812 8.09375 -5.667969 7.628906 -5.667969 C 7.203125 -5.6875 6.738281 -5.6875 6.3125 -5.6875 C 5.847656 -5.6875 5.507812 -6.007812 5.492188 -6.472656 C 5.4375 -7.96875 5.292969 -9.484375 5.1875 -10.980469 C 5.3125 -12.390625 3.691406 -12.140625 2.675781 -12.160156 C 1.085938 -12.175781 0.605469 -11.945312 0.589844 -10.320312 C 0.550781 -8.894531 0.550781 -7.363281 0.535156 -5.953125 C 0.535156 -4.5625 0.570312 -3.121094 0.535156 -1.730469 C 0.535156 -0.304688 0.785156 0 2.191406 0.0898438 Z M 2.191406 0.0898438 "/></g></g></g><g fill="#ffffff" fill-opacity="1"><g transform="translate(38.060339, 31.054599)"><g><path d="M 2.191406 0.0898438 C 5.652344 0.375 5.507812 0.105469 5.472656 -3.191406 C 5.632812 -5.792969 5.382812 -8.398438 5.1875 -10.980469 C 5.3125 -12.390625 3.691406 -12.140625 2.675781 -12.160156 C 1.085938 -12.175781 0.605469 -11.945312 0.589844 -10.320312 C 0.550781 -8.894531 0.550781 -7.363281 0.535156 -5.953125 C 0.535156 -4.5625 0.570312 -3.121094 0.535156 -1.730469 C 0.535156 -0.304688 0.785156 0 2.191406 0.0898438 Z M 2.191406 0.0898438 "/></g></g></g><g fill="#ffffff" fill-opacity="1"><g transform="translate(44.119615, 31.054599)"><g><path d="M 4.4375 0.0898438 C 7.898438 0.375 7.753906 0.105469 7.71875 -3.191406 C 7.863281 -5.4375 7.683594 -7.683594 7.523438 -9.910156 C 7.488281 -10.179688 7.683594 -10.394531 7.949219 -10.394531 L 8.644531 -10.410156 C 9.179688 -10.410156 9.664062 -10.625 9.625 -11.285156 C 9.589844 -11.605469 9.625 -12.230469 8.253906 -12.195312 C 7.84375 -12.175781 6.4375 -12.195312 5.953125 -12.195312 C 5.027344 -12.195312 1.871094 -12.246094 1 -12.070312 C 0.695312 -12.015625 0.515625 -11.765625 0.535156 -11.195312 C 0.550781 -10.320312 1.050781 -10.375 2.390625 -10.339844 C 2.636719 -10.339844 2.835938 -10.144531 2.816406 -9.894531 C 2.800781 -8.59375 2.800781 -7.21875 2.78125 -5.953125 C 2.78125 -4.5625 2.816406 -3.121094 2.78125 -1.730469 C 2.78125 -0.304688 3.03125 0 4.4375 0.0898438 Z M 4.4375 0.0898438 "/></g></g></g><g fill="#ffffff" fill-opacity="1"><g transform="translate(54.277819, 31.054599)"><g><path d="M 2.191406 0.0898438 C 5.652344 0.375 5.507812 0.105469 5.472656 -3.191406 C 5.492188 -3.566406 5.828125 -3.851562 6.273438 -3.851562 C 6.882812 -3.851562 7.417969 -3.867188 7.84375 -3.886719 C 8.183594 -3.902344 8.433594 -3.546875 8.449219 -3.066406 L 8.503906 -1.746094 C 8.558594 -0.515625 8.503906 -0.0703125 9.378906 -0.0703125 C 10.339844 -0.0703125 10.359375 -0.515625 10.285156 -4.652344 C 10.285156 -4.882812 10.269531 -5.097656 10.269531 -5.292969 L 10.285156 -5.492188 C 10.359375 -6.84375 10.320312 -9.144531 10.25 -10.484375 C 10.195312 -11.710938 10.25 -12.160156 9.378906 -12.160156 C 8.414062 -12.160156 8.484375 -11.625 8.519531 -9.625 L 8.484375 -6.933594 L 8.46875 -6.738281 C 8.46875 -6.578125 8.449219 -6.398438 8.449219 -6.203125 C 8.433594 -5.882812 8.09375 -5.667969 7.628906 -5.667969 C 7.203125 -5.6875 6.738281 -5.6875 6.3125 -5.6875 C 5.847656 -5.6875 5.507812 -6.007812 5.492188 -6.472656 C 5.4375 -7.96875 5.292969 -9.484375 5.1875 -10.980469 C 5.3125 -12.390625 3.691406 -12.140625 2.675781 -12.160156 C 1.085938 -12.175781 0.605469 -11.945312 0.589844 -10.320312 C 0.550781 -8.894531 0.550781 -7.363281 0.535156 -5.953125 C 0.535156 -4.5625 0.570312 -3.121094 0.535156 -1.730469 C 0.535156 -0.304688 0.785156 0 2.191406 0.0898438 Z M 2.191406 0.0898438 "/></g></g></g><g fill="#ffffff" fill-opacity="1"><g transform="translate(65.131056, 31.054599)"><g><path d="M 3.976562 0 C 4.722656 0 5.222656 -0.390625 5.472656 -1.175781 C 5.597656 -1.605469 5.722656 -2.03125 5.828125 -2.460938 C 5.902344 -2.726562 5.988281 -3.03125 6.042969 -3.316406 C 6.3125 -4.1875 6.453125 -4.386719 7.167969 -4.386719 C 8.308594 -4.386719 8.824219 -4.117188 9.074219 -3.386719 C 9.144531 -3.121094 9.644531 -1.390625 9.679688 -1.140625 C 9.859375 -0.695312 10.054688 -0.375 10.359375 -0.160156 C 10.570312 0 10.890625 0.179688 11.25 0 C 11.945312 -0.390625 11.585938 -0.925781 11.425781 -1.570312 C 11.410156 -1.65625 11.195312 -2.15625 10.964844 -2.976562 C 10.855469 -3.261719 10.75 -3.617188 10.644531 -3.902344 C 10.144531 -5.988281 9.589844 -8.164062 8.914062 -10.320312 C 8.753906 -10.730469 8.539062 -11.214844 8.359375 -11.605469 C 8.058594 -12.195312 7.578125 -12.445312 6.988281 -12.300781 C 6.542969 -12.195312 5.382812 -12.246094 5.3125 -12.28125 C 3.976562 -12.355469 3.296875 -11.871094 2.996094 -10.644531 C 2.675781 -9.378906 2.265625 -8.164062 1.871094 -6.953125 C 1.65625 -6.328125 1.480469 -5.6875 1.265625 -5.027344 C 0.875 -3.761719 0.640625 -2.710938 0.535156 -1.800781 L 0.535156 -1.78125 C 0.480469 -0.5 0.785156 -0.179688 1.960938 -0.0898438 C 2.335938 -0.0546875 2.726562 -0.0351562 3.085938 -0.0351562 C 3.351562 -0.0195312 3.617188 -0.0195312 3.851562 -0.0195312 C 3.867188 0 3.921875 0 3.976562 0 Z M 6.988281 -6.792969 C 7.167969 -7.273438 7.328125 -7.773438 7.503906 -8.34375 C 7.898438 -9.253906 8.21875 -7.398438 8.308594 -6.667969 C 8.378906 -6.292969 8.253906 -6.0625 8.003906 -5.953125 C 7.683594 -5.792969 7.363281 -5.828125 7.167969 -6.027344 C 6.933594 -6.1875 6.882812 -6.4375 6.988281 -6.792969 Z M 6.988281 -6.792969 "/></g></g></g></svg>